<mxfile host="Electron" modified="2023-08-12T16:42:42.369Z" agent="Mozilla/5.0 (Windows NT 10.0; Win64; x64) AppleWebKit/537.36 (KHTML, like Gecko) draw.io/21.6.5 Chrome/114.0.5735.243 Electron/25.3.1 Safari/537.36" etag="84wJYbOHwl-pdRuIXfsP" version="21.6.5" type="device">
  <diagram id="C5RBs43oDa-KdzZeNtuy" name="Page-1">
    <mxGraphModel dx="1927" dy="655" grid="1" gridSize="8" guides="1" tooltips="1" connect="1" arrows="1" fold="1" page="1" pageScale="1" pageWidth="827" pageHeight="1169" math="0" shadow="0">
      <root>
        <mxCell id="WIyWlLk6GJQsqaUBKTNV-0" />
        <mxCell id="WIyWlLk6GJQsqaUBKTNV-1" parent="WIyWlLk6GJQsqaUBKTNV-0" />
        <mxCell id="JHegIxZ99EDeHfhcU_bb-1" style="edgeStyle=orthogonalEdgeStyle;rounded=0;orthogonalLoop=1;jettySize=auto;html=1;exitX=0.5;exitY=1;exitDx=0;exitDy=0;entryX=0.5;entryY=0;entryDx=0;entryDy=0;" edge="1" parent="WIyWlLk6GJQsqaUBKTNV-1" source="WIyWlLk6GJQsqaUBKTNV-3" target="JHegIxZ99EDeHfhcU_bb-0">
          <mxGeometry relative="1" as="geometry" />
        </mxCell>
        <mxCell id="WIyWlLk6GJQsqaUBKTNV-3" value="Aseguradora_Latinoamerica" style="rounded=1;whiteSpace=wrap;html=1;fontSize=12;glass=0;strokeWidth=1;shadow=0;fillColor=#f8cecc;strokeColor=#b85450;gradientColor=#ea6b66;" parent="WIyWlLk6GJQsqaUBKTNV-1" vertex="1">
          <mxGeometry x="160" y="80" width="208" height="40" as="geometry" />
        </mxCell>
        <mxCell id="JHegIxZ99EDeHfhcU_bb-3" style="edgeStyle=orthogonalEdgeStyle;rounded=0;orthogonalLoop=1;jettySize=auto;html=1;exitX=0.5;exitY=1;exitDx=0;exitDy=0;entryX=0.5;entryY=0;entryDx=0;entryDy=0;" edge="1" parent="WIyWlLk6GJQsqaUBKTNV-1" source="JHegIxZ99EDeHfhcU_bb-0">
          <mxGeometry relative="1" as="geometry">
            <mxPoint x="248" y="224" as="targetPoint" />
          </mxGeometry>
        </mxCell>
        <mxCell id="JHegIxZ99EDeHfhcU_bb-0" value="Definir cantidadAsegurada, sumaDistribuida, sumaRestante como Real" style="rounded=1;whiteSpace=wrap;html=1;fillColor=#fff2cc;strokeColor=#d6b656;" vertex="1" parent="WIyWlLk6GJQsqaUBKTNV-1">
          <mxGeometry x="108" y="152" width="296" height="40" as="geometry" />
        </mxCell>
        <mxCell id="JHegIxZ99EDeHfhcU_bb-8" style="edgeStyle=orthogonalEdgeStyle;rounded=0;orthogonalLoop=1;jettySize=auto;html=1;exitX=0.5;exitY=1;exitDx=0;exitDy=0;entryX=0.513;entryY=-0.187;entryDx=0;entryDy=0;entryPerimeter=0;" edge="1" parent="WIyWlLk6GJQsqaUBKTNV-1" source="JHegIxZ99EDeHfhcU_bb-6" target="JHegIxZ99EDeHfhcU_bb-7">
          <mxGeometry relative="1" as="geometry" />
        </mxCell>
        <mxCell id="JHegIxZ99EDeHfhcU_bb-6" value="Definir caso1, caso2, casoEspecial como Real" style="rounded=1;whiteSpace=wrap;html=1;fillColor=#fff2cc;strokeColor=#d6b656;" vertex="1" parent="WIyWlLk6GJQsqaUBKTNV-1">
          <mxGeometry x="108" y="224" width="296" height="40" as="geometry" />
        </mxCell>
        <mxCell id="JHegIxZ99EDeHfhcU_bb-10" style="edgeStyle=orthogonalEdgeStyle;rounded=0;orthogonalLoop=1;jettySize=auto;html=1;exitX=0.5;exitY=1;exitDx=0;exitDy=0;entryX=0.473;entryY=-0.062;entryDx=0;entryDy=0;entryPerimeter=0;" edge="1" parent="WIyWlLk6GJQsqaUBKTNV-1" source="JHegIxZ99EDeHfhcU_bb-7" target="JHegIxZ99EDeHfhcU_bb-9">
          <mxGeometry relative="1" as="geometry" />
        </mxCell>
        <mxCell id="JHegIxZ99EDeHfhcU_bb-7" value="&quot;Ingrese la cantidad Asegurada&quot;&amp;nbsp;" style="shape=parallelogram;perimeter=parallelogramPerimeter;whiteSpace=wrap;html=1;fixedSize=1;fillColor=#f8cecc;strokeColor=#b85450;" vertex="1" parent="WIyWlLk6GJQsqaUBKTNV-1">
          <mxGeometry x="104" y="304" width="304" height="32" as="geometry" />
        </mxCell>
        <mxCell id="JHegIxZ99EDeHfhcU_bb-12" style="edgeStyle=orthogonalEdgeStyle;rounded=0;orthogonalLoop=1;jettySize=auto;html=1;exitX=0.5;exitY=1;exitDx=0;exitDy=0;entryX=0.5;entryY=0;entryDx=0;entryDy=0;" edge="1" parent="WIyWlLk6GJQsqaUBKTNV-1" source="JHegIxZ99EDeHfhcU_bb-9" target="JHegIxZ99EDeHfhcU_bb-11">
          <mxGeometry relative="1" as="geometry" />
        </mxCell>
        <mxCell id="JHegIxZ99EDeHfhcU_bb-9" value="cantidadAsegurada" style="shape=parallelogram;perimeter=parallelogramPerimeter;whiteSpace=wrap;html=1;fixedSize=1;fillColor=#f8cecc;strokeColor=#b85450;" vertex="1" parent="WIyWlLk6GJQsqaUBKTNV-1">
          <mxGeometry x="136" y="360" width="256" height="32" as="geometry" />
        </mxCell>
        <mxCell id="JHegIxZ99EDeHfhcU_bb-15" style="edgeStyle=orthogonalEdgeStyle;rounded=0;orthogonalLoop=1;jettySize=auto;html=1;exitX=0;exitY=0.5;exitDx=0;exitDy=0;" edge="1" parent="WIyWlLk6GJQsqaUBKTNV-1" source="JHegIxZ99EDeHfhcU_bb-11" target="JHegIxZ99EDeHfhcU_bb-14">
          <mxGeometry relative="1" as="geometry" />
        </mxCell>
        <mxCell id="JHegIxZ99EDeHfhcU_bb-19" style="edgeStyle=orthogonalEdgeStyle;rounded=0;orthogonalLoop=1;jettySize=auto;html=1;exitX=1;exitY=0.5;exitDx=0;exitDy=0;" edge="1" parent="WIyWlLk6GJQsqaUBKTNV-1" source="JHegIxZ99EDeHfhcU_bb-11" target="JHegIxZ99EDeHfhcU_bb-18">
          <mxGeometry relative="1" as="geometry" />
        </mxCell>
        <mxCell id="JHegIxZ99EDeHfhcU_bb-11" value="cantidaAsegurada &amp;lt;1000000" style="rhombus;whiteSpace=wrap;html=1;fillColor=#d5e8d4;strokeColor=#82b366;" vertex="1" parent="WIyWlLk6GJQsqaUBKTNV-1">
          <mxGeometry x="54" y="424" width="420" height="80" as="geometry" />
        </mxCell>
        <mxCell id="JHegIxZ99EDeHfhcU_bb-13" style="edgeStyle=orthogonalEdgeStyle;rounded=0;orthogonalLoop=1;jettySize=auto;html=1;exitX=0.5;exitY=1;exitDx=0;exitDy=0;" edge="1" parent="WIyWlLk6GJQsqaUBKTNV-1" source="JHegIxZ99EDeHfhcU_bb-11" target="JHegIxZ99EDeHfhcU_bb-11">
          <mxGeometry relative="1" as="geometry" />
        </mxCell>
        <mxCell id="JHegIxZ99EDeHfhcU_bb-31" style="edgeStyle=orthogonalEdgeStyle;rounded=0;orthogonalLoop=1;jettySize=auto;html=1;exitX=0;exitY=0.5;exitDx=0;exitDy=0;entryX=0.5;entryY=0;entryDx=0;entryDy=0;" edge="1" parent="WIyWlLk6GJQsqaUBKTNV-1" source="JHegIxZ99EDeHfhcU_bb-14" target="JHegIxZ99EDeHfhcU_bb-29">
          <mxGeometry relative="1" as="geometry" />
        </mxCell>
        <mxCell id="JHegIxZ99EDeHfhcU_bb-32" style="edgeStyle=orthogonalEdgeStyle;rounded=0;orthogonalLoop=1;jettySize=auto;html=1;exitX=1;exitY=0.5;exitDx=0;exitDy=0;entryX=0.75;entryY=0;entryDx=0;entryDy=0;" edge="1" parent="WIyWlLk6GJQsqaUBKTNV-1" source="JHegIxZ99EDeHfhcU_bb-14" target="JHegIxZ99EDeHfhcU_bb-28">
          <mxGeometry relative="1" as="geometry" />
        </mxCell>
        <mxCell id="JHegIxZ99EDeHfhcU_bb-14" value="cantidadAsegurada&amp;gt;100000 si cantidadAsegurada&amp;lt; 120000" style="rhombus;whiteSpace=wrap;html=1;fillColor=#dae8fc;strokeColor=#6c8ebf;" vertex="1" parent="WIyWlLk6GJQsqaUBKTNV-1">
          <mxGeometry x="-368" y="552" width="408" height="72" as="geometry" />
        </mxCell>
        <mxCell id="JHegIxZ99EDeHfhcU_bb-16" value="F" style="text;html=1;align=center;verticalAlign=middle;resizable=0;points=[];autosize=1;strokeColor=none;fillColor=none;" vertex="1" parent="WIyWlLk6GJQsqaUBKTNV-1">
          <mxGeometry x="-120" y="429" width="24" height="32" as="geometry" />
        </mxCell>
        <mxCell id="JHegIxZ99EDeHfhcU_bb-17" style="edgeStyle=orthogonalEdgeStyle;rounded=0;orthogonalLoop=1;jettySize=auto;html=1;exitX=0.5;exitY=1;exitDx=0;exitDy=0;" edge="1" parent="WIyWlLk6GJQsqaUBKTNV-1" source="JHegIxZ99EDeHfhcU_bb-14" target="JHegIxZ99EDeHfhcU_bb-14">
          <mxGeometry relative="1" as="geometry" />
        </mxCell>
        <mxCell id="JHegIxZ99EDeHfhcU_bb-22" style="edgeStyle=orthogonalEdgeStyle;rounded=0;orthogonalLoop=1;jettySize=auto;html=1;exitX=0.5;exitY=1;exitDx=0;exitDy=0;entryX=0.5;entryY=0;entryDx=0;entryDy=0;" edge="1" parent="WIyWlLk6GJQsqaUBKTNV-1" source="JHegIxZ99EDeHfhcU_bb-18" target="JHegIxZ99EDeHfhcU_bb-20">
          <mxGeometry relative="1" as="geometry" />
        </mxCell>
        <mxCell id="JHegIxZ99EDeHfhcU_bb-18" value="sumaDistribuida &amp;lt;- cantidadAsegurada*0.8&amp;nbsp;" style="rounded=1;whiteSpace=wrap;html=1;fillColor=#ffe6cc;strokeColor=#d79b00;" vertex="1" parent="WIyWlLk6GJQsqaUBKTNV-1">
          <mxGeometry x="568" y="558" width="232" height="42" as="geometry" />
        </mxCell>
        <mxCell id="JHegIxZ99EDeHfhcU_bb-25" style="edgeStyle=orthogonalEdgeStyle;rounded=0;orthogonalLoop=1;jettySize=auto;html=1;exitX=0.5;exitY=1;exitDx=0;exitDy=0;entryX=0.5;entryY=0;entryDx=0;entryDy=0;" edge="1" parent="WIyWlLk6GJQsqaUBKTNV-1" source="JHegIxZ99EDeHfhcU_bb-20" target="JHegIxZ99EDeHfhcU_bb-24">
          <mxGeometry relative="1" as="geometry" />
        </mxCell>
        <mxCell id="JHegIxZ99EDeHfhcU_bb-20" value="sumaRestante &amp;lt;- cantidadAsegurada*0.2" style="rounded=1;whiteSpace=wrap;html=1;fillColor=#fff2cc;strokeColor=#d6b656;" vertex="1" parent="WIyWlLk6GJQsqaUBKTNV-1">
          <mxGeometry x="556" y="632" width="256" height="60" as="geometry" />
        </mxCell>
        <mxCell id="JHegIxZ99EDeHfhcU_bb-51" style="edgeStyle=orthogonalEdgeStyle;rounded=0;orthogonalLoop=1;jettySize=auto;html=1;exitX=0.5;exitY=1;exitDx=0;exitDy=0;" edge="1" parent="WIyWlLk6GJQsqaUBKTNV-1" source="JHegIxZ99EDeHfhcU_bb-23">
          <mxGeometry relative="1" as="geometry">
            <mxPoint x="684.25" y="1506" as="targetPoint" />
          </mxGeometry>
        </mxCell>
        <mxCell id="JHegIxZ99EDeHfhcU_bb-23" value="Socio2 &amp;lt;- sumaRestante/2" style="rounded=1;whiteSpace=wrap;html=1;fillColor=#fff2cc;strokeColor=#d6b656;" vertex="1" parent="WIyWlLk6GJQsqaUBKTNV-1">
          <mxGeometry x="572" y="848" width="224" height="60" as="geometry" />
        </mxCell>
        <mxCell id="JHegIxZ99EDeHfhcU_bb-26" style="edgeStyle=orthogonalEdgeStyle;rounded=0;orthogonalLoop=1;jettySize=auto;html=1;exitX=0.5;exitY=1;exitDx=0;exitDy=0;entryX=0.5;entryY=0;entryDx=0;entryDy=0;" edge="1" parent="WIyWlLk6GJQsqaUBKTNV-1" source="JHegIxZ99EDeHfhcU_bb-24" target="JHegIxZ99EDeHfhcU_bb-23">
          <mxGeometry relative="1" as="geometry" />
        </mxCell>
        <mxCell id="JHegIxZ99EDeHfhcU_bb-24" value="socio1 &amp;lt;- sumaRestante/2" style="rounded=1;whiteSpace=wrap;html=1;fillColor=#fff2cc;strokeColor=#d6b656;" vertex="1" parent="WIyWlLk6GJQsqaUBKTNV-1">
          <mxGeometry x="580" y="744" width="208" height="60" as="geometry" />
        </mxCell>
        <mxCell id="JHegIxZ99EDeHfhcU_bb-27" value="V" style="text;html=1;align=center;verticalAlign=middle;resizable=0;points=[];autosize=1;strokeColor=none;fillColor=none;" vertex="1" parent="WIyWlLk6GJQsqaUBKTNV-1">
          <mxGeometry x="612" y="437" width="32" height="32" as="geometry" />
        </mxCell>
        <mxCell id="JHegIxZ99EDeHfhcU_bb-40" style="edgeStyle=orthogonalEdgeStyle;rounded=0;orthogonalLoop=1;jettySize=auto;html=1;exitX=0.75;exitY=1;exitDx=0;exitDy=0;entryX=0.75;entryY=0;entryDx=0;entryDy=0;" edge="1" parent="WIyWlLk6GJQsqaUBKTNV-1" source="JHegIxZ99EDeHfhcU_bb-28" target="JHegIxZ99EDeHfhcU_bb-39">
          <mxGeometry relative="1" as="geometry" />
        </mxCell>
        <mxCell id="JHegIxZ99EDeHfhcU_bb-28" value="sumaDistribuida &amp;lt;- 100000*0.8" style="rounded=1;whiteSpace=wrap;html=1;fillColor=#fff2cc;strokeColor=#d6b656;" vertex="1" parent="WIyWlLk6GJQsqaUBKTNV-1">
          <mxGeometry x="-24" y="684" width="248" height="36" as="geometry" />
        </mxCell>
        <mxCell id="JHegIxZ99EDeHfhcU_bb-37" style="edgeStyle=orthogonalEdgeStyle;rounded=0;orthogonalLoop=1;jettySize=auto;html=1;exitX=0.5;exitY=1;exitDx=0;exitDy=0;entryX=0.5;entryY=0;entryDx=0;entryDy=0;" edge="1" parent="WIyWlLk6GJQsqaUBKTNV-1" source="JHegIxZ99EDeHfhcU_bb-29" target="JHegIxZ99EDeHfhcU_bb-36">
          <mxGeometry relative="1" as="geometry" />
        </mxCell>
        <mxCell id="JHegIxZ99EDeHfhcU_bb-29" value="sumaDistribuida &amp;lt;- 100000 *0.8" style="rounded=1;whiteSpace=wrap;html=1;fillColor=#fff2cc;strokeColor=#d6b656;" vertex="1" parent="WIyWlLk6GJQsqaUBKTNV-1">
          <mxGeometry x="-520" y="684" width="232" height="44" as="geometry" />
        </mxCell>
        <mxCell id="JHegIxZ99EDeHfhcU_bb-33" value="V" style="text;html=1;align=center;verticalAlign=middle;resizable=0;points=[];autosize=1;strokeColor=none;fillColor=none;" vertex="1" parent="WIyWlLk6GJQsqaUBKTNV-1">
          <mxGeometry x="92" y="557" width="32" height="32" as="geometry" />
        </mxCell>
        <mxCell id="JHegIxZ99EDeHfhcU_bb-34" value="F" style="text;html=1;align=center;verticalAlign=middle;resizable=0;points=[];autosize=1;strokeColor=none;fillColor=none;" vertex="1" parent="WIyWlLk6GJQsqaUBKTNV-1">
          <mxGeometry x="-408" y="557" width="24" height="32" as="geometry" />
        </mxCell>
        <mxCell id="JHegIxZ99EDeHfhcU_bb-45" style="edgeStyle=orthogonalEdgeStyle;rounded=0;orthogonalLoop=1;jettySize=auto;html=1;exitX=0.5;exitY=1;exitDx=0;exitDy=0;" edge="1" parent="WIyWlLk6GJQsqaUBKTNV-1" source="JHegIxZ99EDeHfhcU_bb-35">
          <mxGeometry relative="1" as="geometry">
            <mxPoint x="-404.5" y="1208" as="targetPoint" />
          </mxGeometry>
        </mxCell>
        <mxCell id="JHegIxZ99EDeHfhcU_bb-35" value="casoEspecial &amp;lt;- cantidadAsegurada - 120000" style="rounded=1;whiteSpace=wrap;html=1;fillColor=#fff2cc;strokeColor=#d6b656;" vertex="1" parent="WIyWlLk6GJQsqaUBKTNV-1">
          <mxGeometry x="-560" y="904" width="312" height="60" as="geometry" />
        </mxCell>
        <mxCell id="JHegIxZ99EDeHfhcU_bb-38" style="edgeStyle=orthogonalEdgeStyle;rounded=0;orthogonalLoop=1;jettySize=auto;html=1;exitX=0.5;exitY=1;exitDx=0;exitDy=0;entryX=0.5;entryY=0;entryDx=0;entryDy=0;" edge="1" parent="WIyWlLk6GJQsqaUBKTNV-1" source="JHegIxZ99EDeHfhcU_bb-36" target="JHegIxZ99EDeHfhcU_bb-35">
          <mxGeometry relative="1" as="geometry" />
        </mxCell>
        <mxCell id="JHegIxZ99EDeHfhcU_bb-36" value="sumaRestante &amp;lt;- 200000*0.8" style="rounded=1;whiteSpace=wrap;html=1;fillColor=#fff2cc;strokeColor=#d6b656;" vertex="1" parent="WIyWlLk6GJQsqaUBKTNV-1">
          <mxGeometry x="-528" y="788" width="248" height="60" as="geometry" />
        </mxCell>
        <mxCell id="JHegIxZ99EDeHfhcU_bb-42" style="edgeStyle=orthogonalEdgeStyle;rounded=0;orthogonalLoop=1;jettySize=auto;html=1;exitX=0.75;exitY=1;exitDx=0;exitDy=0;entryX=0.75;entryY=0;entryDx=0;entryDy=0;" edge="1" parent="WIyWlLk6GJQsqaUBKTNV-1" source="JHegIxZ99EDeHfhcU_bb-39" target="JHegIxZ99EDeHfhcU_bb-41">
          <mxGeometry relative="1" as="geometry" />
        </mxCell>
        <mxCell id="JHegIxZ99EDeHfhcU_bb-39" value="sumaRestante &amp;lt;- (cantidadAsegurada&amp;nbsp; - 100000) *0.8&amp;nbsp;" style="rounded=1;whiteSpace=wrap;html=1;fillColor=#fff2cc;strokeColor=#d6b656;" vertex="1" parent="WIyWlLk6GJQsqaUBKTNV-1">
          <mxGeometry x="-32" y="792" width="256" height="40" as="geometry" />
        </mxCell>
        <mxCell id="JHegIxZ99EDeHfhcU_bb-44" style="edgeStyle=orthogonalEdgeStyle;rounded=0;orthogonalLoop=1;jettySize=auto;html=1;exitX=0.75;exitY=1;exitDx=0;exitDy=0;entryX=0.66;entryY=0.046;entryDx=0;entryDy=0;entryPerimeter=0;" edge="1" parent="WIyWlLk6GJQsqaUBKTNV-1" source="JHegIxZ99EDeHfhcU_bb-41" target="JHegIxZ99EDeHfhcU_bb-43">
          <mxGeometry relative="1" as="geometry" />
        </mxCell>
        <mxCell id="JHegIxZ99EDeHfhcU_bb-41" value="Socio1&amp;nbsp; &amp;lt;- sumaRestante /2" style="rounded=1;whiteSpace=wrap;html=1;fillColor=#fff2cc;strokeColor=#d6b656;" vertex="1" parent="WIyWlLk6GJQsqaUBKTNV-1">
          <mxGeometry x="-32" y="896" width="256" height="60" as="geometry" />
        </mxCell>
        <mxCell id="JHegIxZ99EDeHfhcU_bb-46" style="edgeStyle=orthogonalEdgeStyle;rounded=0;orthogonalLoop=1;jettySize=auto;html=1;exitX=0.5;exitY=1;exitDx=0;exitDy=0;" edge="1" parent="WIyWlLk6GJQsqaUBKTNV-1" source="JHegIxZ99EDeHfhcU_bb-43">
          <mxGeometry relative="1" as="geometry">
            <mxPoint x="115.5" y="1216.0000000000002" as="targetPoint" />
          </mxGeometry>
        </mxCell>
        <mxCell id="JHegIxZ99EDeHfhcU_bb-43" value="Socio2 &amp;lt;- sumaRestante /2" style="rounded=1;whiteSpace=wrap;html=1;fillColor=#fff2cc;strokeColor=#d6b656;" vertex="1" parent="WIyWlLk6GJQsqaUBKTNV-1">
          <mxGeometry x="-16" y="992" width="264" height="60" as="geometry" />
        </mxCell>
        <mxCell id="JHegIxZ99EDeHfhcU_bb-47" value="" style="endArrow=none;html=1;rounded=0;" edge="1" parent="WIyWlLk6GJQsqaUBKTNV-1">
          <mxGeometry width="50" height="50" relative="1" as="geometry">
            <mxPoint x="-400" y="1208" as="sourcePoint" />
            <mxPoint x="112" y="1208" as="targetPoint" />
            <Array as="points">
              <mxPoint x="-144" y="1208" />
            </Array>
          </mxGeometry>
        </mxCell>
        <mxCell id="JHegIxZ99EDeHfhcU_bb-48" value="" style="endArrow=classic;html=1;rounded=0;" edge="1" parent="WIyWlLk6GJQsqaUBKTNV-1">
          <mxGeometry width="50" height="50" relative="1" as="geometry">
            <mxPoint x="-128" y="1192" as="sourcePoint" />
            <mxPoint x="-136" y="1496" as="targetPoint" />
            <Array as="points">
              <mxPoint x="-136" y="1488" />
            </Array>
          </mxGeometry>
        </mxCell>
        <mxCell id="JHegIxZ99EDeHfhcU_bb-52" value="" style="endArrow=none;html=1;rounded=0;" edge="1" parent="WIyWlLk6GJQsqaUBKTNV-1">
          <mxGeometry width="50" height="50" relative="1" as="geometry">
            <mxPoint x="-136" y="1496" as="sourcePoint" />
            <mxPoint x="688" y="1496" as="targetPoint" />
          </mxGeometry>
        </mxCell>
        <mxCell id="JHegIxZ99EDeHfhcU_bb-53" value="" style="endArrow=classic;html=1;rounded=0;" edge="1" parent="WIyWlLk6GJQsqaUBKTNV-1">
          <mxGeometry width="50" height="50" relative="1" as="geometry">
            <mxPoint x="280" y="1498" as="sourcePoint" />
            <mxPoint x="280" y="1640" as="targetPoint" />
          </mxGeometry>
        </mxCell>
        <mxCell id="JHegIxZ99EDeHfhcU_bb-61" style="edgeStyle=orthogonalEdgeStyle;rounded=0;orthogonalLoop=1;jettySize=auto;html=1;exitX=0.5;exitY=1;exitDx=0;exitDy=0;entryX=0.5;entryY=0;entryDx=0;entryDy=0;" edge="1" parent="WIyWlLk6GJQsqaUBKTNV-1" source="JHegIxZ99EDeHfhcU_bb-55" target="JHegIxZ99EDeHfhcU_bb-60">
          <mxGeometry relative="1" as="geometry" />
        </mxCell>
        <mxCell id="JHegIxZ99EDeHfhcU_bb-55" value="&quot;Socio2 recibe:&quot; ,caso2" style="shape=parallelogram;perimeter=parallelogramPerimeter;whiteSpace=wrap;html=1;fixedSize=1;fillColor=#d5e8d4;strokeColor=#82b366;" vertex="1" parent="WIyWlLk6GJQsqaUBKTNV-1">
          <mxGeometry x="88" y="1840" width="440" height="60" as="geometry" />
        </mxCell>
        <mxCell id="JHegIxZ99EDeHfhcU_bb-59" style="edgeStyle=orthogonalEdgeStyle;rounded=0;orthogonalLoop=1;jettySize=auto;html=1;exitX=0.5;exitY=1;exitDx=0;exitDy=0;entryX=0.48;entryY=0;entryDx=0;entryDy=0;entryPerimeter=0;" edge="1" parent="WIyWlLk6GJQsqaUBKTNV-1" source="JHegIxZ99EDeHfhcU_bb-56" target="JHegIxZ99EDeHfhcU_bb-55">
          <mxGeometry relative="1" as="geometry" />
        </mxCell>
        <mxCell id="JHegIxZ99EDeHfhcU_bb-56" value="&quot;Socio1 recibe:&quot; ,caso1" style="shape=parallelogram;perimeter=parallelogramPerimeter;whiteSpace=wrap;html=1;fixedSize=1;fillColor=#d5e8d4;strokeColor=#82b366;" vertex="1" parent="WIyWlLk6GJQsqaUBKTNV-1">
          <mxGeometry x="88" y="1744" width="424" height="60" as="geometry" />
        </mxCell>
        <mxCell id="JHegIxZ99EDeHfhcU_bb-58" style="edgeStyle=orthogonalEdgeStyle;rounded=0;orthogonalLoop=1;jettySize=auto;html=1;exitX=0.5;exitY=1;exitDx=0;exitDy=0;" edge="1" parent="WIyWlLk6GJQsqaUBKTNV-1" source="JHegIxZ99EDeHfhcU_bb-57" target="JHegIxZ99EDeHfhcU_bb-56">
          <mxGeometry relative="1" as="geometry" />
        </mxCell>
        <mxCell id="JHegIxZ99EDeHfhcU_bb-57" value="&quot;La suma distribuida es :&quot; , sumaDistribuida" style="shape=parallelogram;perimeter=parallelogramPerimeter;whiteSpace=wrap;html=1;fixedSize=1;fillColor=#d5e8d4;strokeColor=#82b366;" vertex="1" parent="WIyWlLk6GJQsqaUBKTNV-1">
          <mxGeometry x="72" y="1640" width="456" height="60" as="geometry" />
        </mxCell>
        <mxCell id="JHegIxZ99EDeHfhcU_bb-64" style="edgeStyle=orthogonalEdgeStyle;rounded=0;orthogonalLoop=1;jettySize=auto;html=1;exitX=0.5;exitY=1;exitDx=0;exitDy=0;entryX=0.5;entryY=0;entryDx=0;entryDy=0;" edge="1" parent="WIyWlLk6GJQsqaUBKTNV-1" source="JHegIxZ99EDeHfhcU_bb-60" target="JHegIxZ99EDeHfhcU_bb-63">
          <mxGeometry relative="1" as="geometry" />
        </mxCell>
        <mxCell id="JHegIxZ99EDeHfhcU_bb-60" value="&quot;Socio Especial recibe:&quot;,&amp;nbsp; casoEspecial" style="shape=parallelogram;perimeter=parallelogramPerimeter;whiteSpace=wrap;html=1;fixedSize=1;fillColor=#d5e8d4;strokeColor=#82b366;" vertex="1" parent="WIyWlLk6GJQsqaUBKTNV-1">
          <mxGeometry x="120" y="1944" width="376" height="60" as="geometry" />
        </mxCell>
        <mxCell id="JHegIxZ99EDeHfhcU_bb-63" value="Finalgoritmo" style="ellipse;whiteSpace=wrap;html=1;fillColor=#e51400;fontColor=#ffffff;strokeColor=#B20000;" vertex="1" parent="WIyWlLk6GJQsqaUBKTNV-1">
          <mxGeometry x="164" y="2040" width="288" height="56" as="geometry" />
        </mxCell>
      </root>
    </mxGraphModel>
  </diagram>
</mxfile>
